<?xml version="1.0" encoding="utf-8"?>
<!-- Generator: Adobe Illustrator 27.7.0, SVG Export Plug-In . SVG Version: 6.00 Build 0)  -->
<svg version="1.1" id="Layer_1" xmlns="http://www.w3.org/2000/svg" xmlns:xlink="http://www.w3.org/1999/xlink" x="0px" y="0px"
	 viewBox="0 0 25 25" style="enable-background:new 0 0 25 25;" xml:space="preserve">
<style type="text/css">
	.st0{fill:#FFFFFF;}
</style>
<g id="E_-_565_x2C__Paper_x2C__plane">
	<path class="st0" d="M23.76,1.77c0,0,0-0.07-0.04-0.11c-0.07-0.26-0.38-0.37-0.6-0.3L1.56,8.5C1.22,8.61,1.15,9.02,1.37,9.28
		l7.06,6.99v6.92c0,0.19,0.15,0.37,0.34,0.45c0.19,0.07,0.41,0,0.53-0.19l2.67-3.68l3.79,3.76c0.26,0.26,0.68,0.15,0.79-0.19
		c7.51-22.35,7.21-21.38,7.21-21.46C23.76,1.88,23.76,1.8,23.76,1.77z M21.54,2.88L8.88,15.41L2.57,9.17L21.54,2.88z M9.37,21.74
		V17.2l1.92,1.9L9.37,21.74z M15.87,22.33L12.3,18.8c-0.04-0.07-0.11-0.15-0.19-0.19l-2.55-2.53L22.22,3.55L15.87,22.33z"/>
</g>
</svg>
