<?xml version="1.0" encoding="utf-8"?>
<!-- Generator: Adobe Illustrator 27.3.1, SVG Export Plug-In . SVG Version: 6.00 Build 0)  -->
<svg version="1.1" id="Layer_1" xmlns="http://www.w3.org/2000/svg" xmlns:xlink="http://www.w3.org/1999/xlink" x="0px" y="0px"
	 viewBox="0 0 135 140" style="enable-background:new 0 0 135 140;" xml:space="preserve">
<style type="text/css">
	.st0{fill:url(#SVGID_1_);}
	.st1{fill:url(#SVGID_00000160163438644548218030000007362758039252052357_);}
	.st2{fill:url(#SVGID_00000168825591859382508200000012887304100145532292_);}
	.st3{fill:url(#SVGID_00000000213403258011894330000014782000897759080610_);}
	.st4{fill:url(#SVGID_00000108999516896261848480000003299028432279074462_);}
	.st5{fill:url(#SVGID_00000048497565284255456980000009501716161490376876_);}
	.st6{fill:url(#SVGID_00000078026575846309721080000005537201720762886577_);}
	.st7{opacity:0.51;fill:url(#SVGID_00000132058618908414288260000006810332112711738784_);}
	.st8{fill:url(#SVGID_00000131351954459627236040000004216320013735680940_);}
	.st9{fill:url(#SVGID_00000119806422386021674420000011974923799608086685_);}
</style>
<g>
	<g>
		<g>
			
				<linearGradient id="SVGID_1_" gradientUnits="userSpaceOnUse" x1="10.9378" y1="8295.249" x2="85.4717" y2="8295.249" gradientTransform="matrix(1 0 0 -1 45.6803 8345.8359)">
				<stop  offset="0" style="stop-color:#0782C6"/>
				<stop  offset="0.0905" style="stop-color:#2B86C0"/>
				<stop  offset="0.252" style="stop-color:#5391B5"/>
				<stop  offset="0.4656" style="stop-color:#7FA3A1"/>
				<stop  offset="0.7233" style="stop-color:#B6C07D"/>
				<stop  offset="1" style="stop-color:#F7EC1C"/>
			</linearGradient>
			<path class="st0" d="M68.08,11.76c31.47,0,56.82,22.25,59.55,53.02c0.15,1.02,0.25,2.05,0.25,3.11c0,0.25-0.03,0.49-0.04,0.74
				c0.01,0.5,0.04,1,0.04,1.51h-0.12c-1.13,10.83-10.28,19.27-21.41,19.27c-11.13,0-20.28-8.44-21.4-19.27h-0.03
				c0-0.62-0.04-1.22-0.1-1.83c0-0.14,0.01-0.28,0.01-0.42c0-21.44-17.38-38.82-38.82-38.82c-18.29,0-33.62,12.65-37.73,29.68"/>
			
				<linearGradient id="SVGID_00000160191980085942641800000012607009324166996139_" gradientUnits="userSpaceOnUse" x1="596.0068" y1="8193.5566" x2="638.965" y2="8193.5566" gradientTransform="matrix(-1 0 0 -1 723.889 8261.2646)">
				<stop  offset="0" style="stop-color:#F7EC1C;stop-opacity:0"/>
				<stop  offset="0.1116" style="stop-color:#E7DF42;stop-opacity:0.1116"/>
				<stop  offset="0.3391" style="stop-color:#BFC675;stop-opacity:0.3391"/>
				<stop  offset="0.6627" style="stop-color:#7FA3A1;stop-opacity:0.6627"/>
				<stop  offset="1" style="stop-color:#0782C6"/>
			</linearGradient>
			<path style="fill:url(#SVGID_00000160191980085942641800000012607009324166996139_);" d="M105.45,48.3
				C85.5,51.55,84.92,70.25,84.92,70.25l31.24,17.19c6.32-3.24,10.83-9.52,11.6-16.91h0.12c0-0.51-0.03-1.01-0.04-1.51
				c0.01-0.25,0.04-0.49,0.04-0.74c0-1.06-0.1-2.09-0.25-3.11c-0.24-2.68-0.66-5.3-1.23-7.84C122.6,51.94,116.06,46.58,105.45,48.3z
				"/>
			
				<radialGradient id="SVGID_00000155826707325329973800000000811363092342074010_" cx="221.779" cy="65.4461" r="50.4161" gradientTransform="matrix(-1 0 0 1 265.708 56.1517)" gradientUnits="userSpaceOnUse">
				<stop  offset="0" style="stop-color:#FCEE1A"/>
				<stop  offset="0.1071" style="stop-color:#FAE31D"/>
				<stop  offset="0.3046" style="stop-color:#F8CB20"/>
				<stop  offset="0.5707" style="stop-color:#F4A523"/>
				<stop  offset="0.8917" style="stop-color:#F27123"/>
				<stop  offset="1" style="stop-color:#F15B22"/>
			</radialGradient>
			<path style="fill:url(#SVGID_00000155826707325329973800000000811363092342074010_);" d="M66.92,128.24
				c-31.47,0-56.82-22.25-59.55-53.02c-0.15-1.02-0.25-2.05-0.25-3.11c0-0.25,0.03-0.49,0.04-0.74c-0.01-0.5-0.04-1-0.04-1.51h0.12
				c1.13-10.83,10.28-19.27,21.41-19.27c11.13,0,20.28,8.44,21.4,19.27h0.03c0,0.62,0.04,1.22,0.1,1.83c0,0.14-0.01,0.28-0.01,0.42
				c0,21.44,17.38,38.82,38.82,38.82c18.29,0,33.62-12.65,37.73-29.68"/>
			
				<radialGradient id="SVGID_00000011709378184860929840000000686028133314525850_" cx="38.8461" cy="66.7058" r="49.6681" gradientUnits="userSpaceOnUse">
				<stop  offset="0" style="stop-color:#FCEE1A"/>
				<stop  offset="0.1071" style="stop-color:#FAE31D"/>
				<stop  offset="0.3046" style="stop-color:#F8CB20"/>
				<stop  offset="0.5707" style="stop-color:#F4A523"/>
				<stop  offset="0.8917" style="stop-color:#F27123"/>
				<stop  offset="1" style="stop-color:#F15B22"/>
			</radialGradient>
			<path style="fill:url(#SVGID_00000011709378184860929840000000686028133314525850_);" d="M29.55,92.09
				c19.95-3.25,20.53-21.95,20.53-21.95L18.84,52.95C12.51,56.19,8,62.47,7.24,69.86H7.12c0,0.51,0.03,1.01,0.04,1.51
				c-0.01,0.25-0.04,0.49-0.04,0.74c0,1.06,0.1,2.09,0.25,3.11c0.24,2.68,0.66,5.3,1.23,7.84C12.4,88.46,18.94,93.82,29.55,92.09z"
				/>
			
				<linearGradient id="SVGID_00000070828667107925176430000001099484442686221452_" gradientUnits="userSpaceOnUse" x1="115.471" y1="11.7461" x2="17.6375" y2="88.2864">
				<stop  offset="0" style="stop-color:#494099"/>
				<stop  offset="0.2888" style="stop-color:#833F7F"/>
				<stop  offset="0.6328" style="stop-color:#B93C63"/>
				<stop  offset="0.8786" style="stop-color:#DB3950"/>
				<stop  offset="1" style="stop-color:#E93847"/>
			</linearGradient>
			<path style="fill:url(#SVGID_00000070828667107925176430000001099484442686221452_);" d="M7.15,68.63c-0.01,0.5-0.04,1-0.04,1.51
				h0.12c1.13,10.83,10.28,19.27,21.41,19.27c11.13,0,20.28-8.44,21.4-19.27h0.03c0-0.62,0.04-1.22,0.1-1.83
				c0-0.14-0.01-0.28-0.01-0.42c0-21.44,17.38-38.82,38.82-38.82c18.29,0,33.62,12.65,37.73,29.68C121.37,30.9,96.84,9.7,67.46,9.7
				C36,9.7,10.09,34.01,7.37,64.78c-0.15,1.02-0.25,2.05-0.25,3.11C7.12,68.14,7.15,68.38,7.15,68.63z"/>
			
				<radialGradient id="SVGID_00000116202645663393206470000010093551630257750451_" cx="66.0448" cy="52.0771" r="59.8148" gradientUnits="userSpaceOnUse">
				<stop  offset="0" style="stop-color:#FFFFFF"/>
				<stop  offset="0.1929" style="stop-color:#FBD1CD;stop-opacity:0.826"/>
				<stop  offset="0.4825" style="stop-color:#F69797;stop-opacity:0.5648"/>
				<stop  offset="0.7227" style="stop-color:#F26D77;stop-opacity:0.3481"/>
				<stop  offset="0.9011" style="stop-color:#F04D65;stop-opacity:0.1873"/>
				<stop  offset="0.9978" style="stop-color:#EF3F5F;stop-opacity:0.1"/>
			</radialGradient>
			<path style="fill:url(#SVGID_00000116202645663393206470000010093551630257750451_);" d="M81.06,13.29
				c-3,18.09-28.4,32.21-59.31,32.21c-2.39,0-4.75-0.09-7.06-0.26c-2.91,6.16-4.75,12.81-5.36,19.71l0,0.06l-0.01,0.06
				c-0.16,1.08-0.23,1.98-0.23,2.83c0,0.1,0.01,0.19,0.01,0.29c0.01,0.13,0.02,0.26,0.02,0.39l0,0.05l0,0.05
				c0,0.15-0.01,0.31-0.01,0.46l0.08,0.81c1.04,9.98,9.4,17.51,19.45,17.51c10.05,0,18.41-7.53,19.44-17.51l0.03-0.25
				c0.01-0.47,0.04-0.95,0.09-1.45l0-0.05c0-0.1-0.01-0.2-0.01-0.3c0-22.49,18.3-40.79,40.79-40.79c9.94,0,19.16,3.55,26.32,9.58
				C107.19,25.06,95.02,16.65,81.06,13.29z"/>
		</g>
		
			<linearGradient id="SVGID_00000145035799123597204370000001191774429222917506_" gradientUnits="userSpaceOnUse" x1="68.082" y1="41.7749" x2="68.082" y2="124.5586">
			<stop  offset="0" style="stop-color:#64C085"/>
			<stop  offset="0.1258" style="stop-color:#5EB18E"/>
			<stop  offset="0.7282" style="stop-color:#4577A7"/>
			<stop  offset="0.9969" style="stop-color:#3D61AD"/>
		</linearGradient>
		<path style="fill:url(#SVGID_00000145035799123597204370000001191774429222917506_);" d="M127.88,69.86h-0.12
			c-1.13-10.83-10.28-19.27-21.41-19.27c-11.13,0-20.28,8.44-21.4,19.27h-0.03c0,0.62-0.03,1.22-0.1,1.83
			c0,0.14,0.01,0.28,0.01,0.42c0,21.44-17.38,38.82-38.82,38.82c-18.29,0-33.62-12.65-37.73-29.68
			c5.35,27.85,29.87,49.04,59.25,49.04c31.47,0,57.37-24.3,60.09-55.07c0.15-1.02,0.25-2.05,0.25-3.11c0-0.25-0.03-0.49-0.04-0.74
			C127.86,70.87,127.88,70.37,127.88,69.86z"/>
		
			<radialGradient id="SVGID_00000123419257216183660300000011001510009094601642_" cx="531.3354" cy="8271.002" r="59.8148" gradientTransform="matrix(-1 0 0 -1 601.0972 8358.7041)" gradientUnits="userSpaceOnUse">
			<stop  offset="0" style="stop-color:#00AFE2"/>
			<stop  offset="0.4259" style="stop-color:#6CC1D5;stop-opacity:0.6158"/>
			<stop  offset="0.7966" style="stop-color:#95D1CC;stop-opacity:0.2815"/>
			<stop  offset="0.9978" style="stop-color:#A2D8C9;stop-opacity:0.1"/>
		</radialGradient>
		<path style="opacity:0.51;fill:url(#SVGID_00000123419257216183660300000011001510009094601642_);" d="M54.75,126.49
			c3-18.09,28.4-32.21,59.31-32.21c2.39,0,4.75,0.09,7.06,0.26c2.91-6.16,4.75-12.81,5.36-19.71l0-0.06l0.01-0.06
			c0.16-1.08,0.23-1.98,0.23-2.83c0-0.1-0.01-0.19-0.01-0.29c-0.01-0.13-0.02-0.26-0.02-0.39l0-0.05l0-0.05
			c0-0.15,0.01-0.31,0.01-0.46l-0.08-0.81c-1.04-9.98-9.4-17.51-19.45-17.51c-10.05,0-18.41,7.53-19.44,17.51L87.7,70.1
			c-0.01,0.47-0.04,0.95-0.09,1.45l0,0.05c0,0.1,0.01,0.2,0.01,0.3c0,22.49-18.3,40.79-40.79,40.79c-9.94,0-19.16-3.55-26.32-9.58
			C28.62,114.72,40.79,123.13,54.75,126.49z"/>
	</g>
	
		<radialGradient id="SVGID_00000175315488254736383030000002274836845091630258_" cx="30.0939" cy="92.4095" r="43.1558" gradientTransform="matrix(1 0 0 0.8841 0 10.7104)" gradientUnits="userSpaceOnUse">
		<stop  offset="6.410257e-04" style="stop-color:#FFFFFF"/>
		<stop  offset="0.0832" style="stop-color:#FFFFFF;stop-opacity:0.9174"/>
		<stop  offset="1" style="stop-color:#FFFFFF;stop-opacity:0"/>
	</radialGradient>
	<circle style="fill:url(#SVGID_00000175315488254736383030000002274836845091630258_);" cx="27.78" cy="68.23" r="15.9"/>
	
		<radialGradient id="SVGID_00000057846147790947708350000001522111434980153507_" cx="109.0975" cy="8273.7539" r="43.1558" gradientTransform="matrix(1 0 0 -0.8841 0 7360.9102)" gradientUnits="userSpaceOnUse">
		<stop  offset="6.410257e-04" style="stop-color:#FFFFFF"/>
		<stop  offset="0.0832" style="stop-color:#FFFFFF;stop-opacity:0.9174"/>
		<stop  offset="1" style="stop-color:#FFFFFF;stop-opacity:0"/>
	</radialGradient>
	<circle style="fill:url(#SVGID_00000057846147790947708350000001522111434980153507_);" cx="106.79" cy="70.28" r="15.9"/>
</g>
</svg>
