<?xml version="1.0" encoding="utf-8"?>
<!-- Generator: Adobe Illustrator 27.7.0, SVG Export Plug-In . SVG Version: 6.00 Build 0)  -->
<svg version="1.1" id="Layer_1" xmlns="http://www.w3.org/2000/svg" xmlns:xlink="http://www.w3.org/1999/xlink" x="0px" y="0px"
	 viewBox="0 0 25 25" style="enable-background:new 0 0 25 25;" xml:space="preserve">
<style type="text/css">
	.st0{fill:#FFFFFF;stroke:#FFFFFF;stroke-width:0.5;stroke-miterlimit:10;}
</style>
<g>
	<g id="XMLID_533_">
		<g id="XMLID_539_">
			<path class="st0" d="M14.14,20.83h-3.29c-0.1,0-0.18-0.08-0.18-0.18v-2.47c-1.4-0.39-2.67-1.24-3.58-2.41
				c-0.97-1.24-1.48-2.73-1.48-4.3V4.39c0-0.1,0.08-0.18,0.18-0.18h13.42c0.1,0,0.18,0.08,0.18,0.18v7.08c0,1.57-0.51,3.06-1.48,4.3
				c-0.91,1.17-2.18,2.02-3.58,2.41v2.47C14.32,20.75,14.24,20.83,14.14,20.83z M11.04,20.47h2.93v-2.43c0-0.08,0.06-0.15,0.14-0.17
				c2.9-0.75,4.93-3.38,4.93-6.4v-6.9H5.97v6.9c0,3.02,2.03,5.65,4.93,6.4c0.08,0.02,0.14,0.09,0.14,0.17V20.47z"/>
		</g>
		<g id="XMLID_538_">
			<path class="st0" d="M20.15,4.57H4.85c-0.1,0-0.18-0.08-0.18-0.18V1.68c0-0.1,0.08-0.18,0.18-0.18h15.3
				c0.1,0,0.18,0.08,0.18,0.18v2.71C20.33,4.49,20.25,4.57,20.15,4.57z M5.03,4.21h14.94V1.86H5.03V4.21z"/>
		</g>
		<g id="XMLID_537_">
			<path class="st0" d="M14.36,13.1c-0.04,0-0.07-0.01-0.11-0.03l-1.75-1.28l-1.75,1.28c-0.06,0.05-0.15,0.05-0.21,0
				c-0.06-0.05-0.09-0.13-0.07-0.2l0.67-2.06L9.39,9.53C9.33,9.49,9.3,9.41,9.32,9.33C9.35,9.26,9.42,9.21,9.5,9.21h0l2.17,0
				l0.67-2.06c0.02-0.07,0.09-0.13,0.17-0.13l0,0c0.08,0,0.15,0.05,0.17,0.13l0.67,2.06l2.17,0h0c0.08,0,0.15,0.05,0.17,0.12
				c0.02,0.07,0,0.16-0.07,0.2l-1.76,1.27l0.67,2.06c0.02,0.07,0,0.16-0.07,0.2C14.43,13.09,14.39,13.1,14.36,13.1z M10.05,9.57
				l1.41,1.02c0.06,0.05,0.09,0.13,0.07,0.2l-0.54,1.65l1.41-1.03c0.06-0.05,0.15-0.05,0.21,0l1.4,1.03l-0.54-1.65
				c-0.02-0.07,0-0.16,0.07-0.2l1.41-1.02l-1.74,0h0c-0.08,0-0.15-0.05-0.17-0.13L12.5,7.79l-0.53,1.66
				c-0.02,0.07-0.09,0.12-0.17,0.12c0,0,0,0,0,0L10.05,9.57z"/>
		</g>
		<g id="XMLID_536_">
			<path class="st0" d="M17.41,23.5H7.59c-0.1,0-0.18-0.08-0.18-0.18v-2.67c0-0.1,0.08-0.18,0.18-0.18h9.82
				c0.1,0,0.18,0.08,0.18,0.18v2.67C17.59,23.42,17.51,23.5,17.41,23.5z M7.77,23.14h9.46v-2.31H7.77V23.14z"/>
		</g>
		<g id="XMLID_535_">
			<path class="st0" d="M19.15,12.57c-0.03,0-0.07-0.01-0.1-0.03c-0.06-0.04-0.09-0.11-0.08-0.18c0.04-0.29,0.06-0.6,0.06-0.9V7.95
				c0-0.04,0.02-0.09,0.04-0.12c0.94-1.07,1.9-1.66,2.71-1.66c0.61,0,1.08,0.35,1.24,0.95c0.36,1.28-0.67,3.52-3.79,5.44
				C19.21,12.56,19.18,12.57,19.15,12.57z M19.39,8.01v3.46c0,0.19-0.01,0.38-0.02,0.57c1.24-0.8,2.19-1.71,2.77-2.65
				c0.51-0.81,0.71-1.61,0.54-2.19c-0.12-0.44-0.44-0.68-0.9-0.68C21.11,6.52,20.24,7.07,19.39,8.01z"/>
		</g>
		<g id="XMLID_534_">
			<path class="st0" d="M5.85,12.57L5.85,12.57c-0.03,0-0.07-0.01-0.1-0.03c-3.12-1.91-4.15-4.16-3.79-5.44
				C2.14,6.52,2.6,6.16,3.21,6.16c0.81,0,1.77,0.59,2.71,1.66C5.95,7.86,5.97,7.9,5.97,7.95v3.52c0,0.3,0.02,0.59,0.06,0.88
				c0,0.01,0,0.03,0,0.04C6.03,12.49,5.95,12.57,5.85,12.57z M3.21,6.52c-0.45,0-0.77,0.24-0.9,0.68C2.16,7.78,2.35,8.58,2.86,9.39
				c0.58,0.93,1.54,1.84,2.77,2.65c-0.02-0.19-0.02-0.38-0.02-0.57V8.01C4.76,7.07,3.89,6.52,3.21,6.52z"/>
		</g>
	</g>
</g>
</svg>
