<?xml version="1.0" encoding="utf-8"?>
<!-- Generator: Adobe Illustrator 23.0.1, SVG Export Plug-In . SVG Version: 6.00 Build 0)  -->
<svg version="1.1" id="Capa_1" xmlns="http://www.w3.org/2000/svg" xmlns:xlink="http://www.w3.org/1999/xlink" x="0px" y="0px"
	 viewBox="0 0 25 25" style="enable-background:new 0 0 25 25;" xml:space="preserve">
<style type="text/css">
	.st0{fill:#FFFFFF;}
</style>
<path class="st0" d="M9.8,24.1l-0.6-3.7c-0.4-0.1-0.8-0.3-1.2-0.6c-0.4-0.2-0.8-0.5-1.1-0.7l-3.4,1.6L0.9,16L4,13.7
	c0-0.2-0.1-0.4-0.1-0.6c0-0.2,0-0.4,0-0.6s0-0.4,0-0.6c0-0.2,0-0.4,0.1-0.6L0.9,9l2.7-4.8L7,5.8c0.3-0.3,0.7-0.5,1.1-0.7
	c0.4-0.2,0.8-0.4,1.2-0.5l0.6-3.7h5.3l0.6,3.7c0.4,0.1,0.8,0.3,1.2,0.5s0.8,0.5,1.1,0.7l3.4-1.6L24.1,9L21,11.2
	c0,0.2,0.1,0.4,0.1,0.6s0,0.4,0,0.6s0,0.4,0,0.6s0,0.4-0.1,0.6l3.1,2.3l-2.7,4.8L18,19.2c-0.3,0.3-0.7,0.5-1.1,0.7s-0.8,0.4-1.2,0.5
	l-0.6,3.7H9.8z M12.5,16.2c1,0,1.9-0.4,2.7-1.1s1.1-1.6,1.1-2.7s-0.4-1.9-1.1-2.7c-0.7-0.7-1.6-1.1-2.7-1.1s-1.9,0.4-2.7,1.1
	c-0.7,0.7-1.1,1.6-1.1,2.7s0.4,1.9,1.1,2.7S11.5,16.2,12.5,16.2z M12.5,14.5c-0.6,0-1-0.2-1.4-0.6s-0.6-0.9-0.6-1.4s0.2-1,0.6-1.4
	s0.9-0.6,1.4-0.6s1,0.2,1.4,0.6s0.6,0.9,0.6,1.4s-0.2,1-0.6,1.4S13.1,14.5,12.5,14.5z M11.2,22.3h2.6l0.4-3.3
	c0.6-0.2,1.2-0.4,1.8-0.7s1.1-0.7,1.6-1.2l3.1,1.3l1.2-2.1l-2.7-2c0.1-0.3,0.1-0.7,0.2-1c0-0.3,0.1-0.6,0.1-1c0-0.3,0-0.7-0.1-1
	c0-0.3-0.1-0.6-0.2-1l2.7-2l-1.2-2.1l-3.1,1.3c-0.4-0.5-0.9-0.9-1.5-1.3c-0.6-0.3-1.2-0.6-1.9-0.7l-0.4-3.3h-2.6l-0.4,3.3
	C10.2,6,9.5,6.2,9,6.6C8.4,6.9,7.9,7.3,7.4,7.8L4.4,6.4L3.2,8.5l2.7,2c-0.1,0.3-0.1,0.7-0.2,1c0,0.3-0.1,0.6-0.1,1
	c0,0.3,0,0.7,0.1,1c0,0.3,0.1,0.6,0.2,1l-2.7,2l1.2,2.1l3.1-1.3c0.5,0.5,1,0.9,1.6,1.2s1.2,0.6,1.8,0.7L11.2,22.3z"/>
</svg>
